<svg width="16" height="16" viewBox="0 0 16 16" fill="none" xmlns="http://www.w3.org/2000/svg">
<path d="M16 8C16 12.4182 12.4182 16 8 16C3.58222 16 0 12.4182 0 8C0 3.58222 3.58222 0 8 0C12.4182 0 16 3.58222 16 8Z" fill="#FFCC4D"/>
<path d="M5.11111 8.88888C5.72476 8.88888 6.22222 8.19244 6.22222 7.33333C6.22222 6.47422 5.72476 5.77777 5.11111 5.77777C4.49746 5.77777 4 6.47422 4 7.33333C4 8.19244 4.49746 8.88888 5.11111 8.88888Z" fill="#664500"/>
<path d="M10.8889 8.88888C11.5025 8.88888 12 8.19244 12 7.33333C12 6.47422 11.5025 5.77777 10.8889 5.77777C10.2752 5.77777 9.77777 6.47422 9.77777 7.33333C9.77777 8.19244 10.2752 8.88888 10.8889 8.88888Z" fill="#664500"/>
<path d="M10.4378 12.3907C10.4329 12.3711 9.92889 10.4445 8 10.4445C6.07111 10.4445 5.56711 12.3711 5.56267 12.3907C5.5515 12.4367 5.55546 12.485 5.57396 12.5286C5.59245 12.5721 5.6245 12.6086 5.66533 12.6325C5.70666 12.6565 5.75453 12.6669 5.80211 12.6621C5.84968 12.6573 5.89453 12.6376 5.93022 12.6058C5.93467 12.6022 6.38089 12.2222 8 12.2222C9.59556 12.2222 10.052 12.5911 10.0693 12.6058C10.1042 12.6389 10.1489 12.6597 10.1967 12.6652C10.2444 12.6707 10.2927 12.6606 10.3342 12.6364C10.3757 12.6121 10.4083 12.5751 10.4269 12.5308C10.4456 12.4865 10.4494 12.4373 10.4378 12.3907Z" fill="#664500"/>
<path d="M4.44444 13.3333C4.44444 14.5609 3.44978 15.5556 2.22222 15.5556C0.994667 15.5556 0 14.5609 0 13.3333C0 12.1058 1.77778 8.88889 2.22222 8.88889C2.66667 8.88889 4.44444 12.1058 4.44444 13.3333Z" fill="#5DADEC"/>
<path d="M8 4.88889C11.8884 4.88889 15.1258 6.89289 15.8471 9.54844C15.9458 9.04711 16 8.52978 16 8C16 3.58222 12.4182 0 8 0C3.58222 0 0 3.58222 0 8C0 8.52978 0.0546667 9.04711 0.152889 9.54844C0.874222 6.89289 4.112 4.88889 8 4.88889Z" fill="#BDDDF4"/>
<path d="M13.3333 5.33333C10.8649 5.33333 9.86578 3.39244 9.82445 3.30978C9.77147 3.20446 9.76249 3.0824 9.7995 2.97046C9.8365 2.85852 9.91646 2.76587 10.0218 2.71289C10.1271 2.6599 10.2492 2.65093 10.3611 2.68793C10.473 2.72494 10.5657 2.8049 10.6187 2.91022C10.652 2.97511 11.428 4.44444 13.3333 4.44444C13.4512 4.44444 13.5643 4.49127 13.6476 4.57462C13.731 4.65797 13.7778 4.77101 13.7778 4.88889C13.7778 5.00676 13.731 5.11981 13.6476 5.20316C13.5643 5.28651 13.4512 5.33333 13.3333 5.33333ZM2.66667 5.33333C2.5488 5.33333 2.43575 5.28651 2.3524 5.20316C2.26905 5.11981 2.22223 5.00676 2.22223 4.88889C2.22223 4.77101 2.26905 4.65797 2.3524 4.57462C2.43575 4.49127 2.5488 4.44444 2.66667 4.44444C4.92578 4.44444 5.33156 3.05778 5.34801 2.99867C5.41245 2.764 5.65467 2.62178 5.88978 2.68355C6.12534 2.74533 6.26801 2.98267 6.2089 3.21911C6.18712 3.30533 5.64623 5.33333 2.66667 5.33333Z" fill="#664500"/>
</svg>
