<svg width="16" height="16" viewBox="0 0 16 16" fill="none" xmlns="http://www.w3.org/2000/svg">
<path d="M16 8C16 12.4182 12.4182 16 8 16C3.58222 16 0 12.4182 0 8C0 3.58222 3.58222 0 8 0C12.4182 0 16 3.58222 16 8Z" fill="#FFCC4D"/>
<path d="M7.11108 7.99999C6.92486 7.99999 6.75153 7.88222 6.68931 7.69599C6.59908 7.42977 6.23731 6.66666 5.77775 6.66666C5.30575 6.66666 4.93864 7.47866 4.8662 7.69599C4.84831 7.75207 4.81946 7.80403 4.78132 7.84887C4.74318 7.89371 4.69652 7.93052 4.64404 7.95717C4.59156 7.98383 4.53431 7.99979 4.47561 8.00414C4.41691 8.00849 4.35793 8.00114 4.3021 7.9825C4.24626 7.96387 4.19469 7.93434 4.15036 7.89561C4.10603 7.85688 4.06984 7.80974 4.04388 7.75691C4.01793 7.70408 4.00272 7.64662 3.99915 7.58787C3.99558 7.52912 4.00371 7.47024 4.02308 7.41466C4.07864 7.24755 4.60264 5.77777 5.77775 5.77777C6.95286 5.77777 7.47686 7.24755 7.53286 7.4151C7.55511 7.48192 7.56117 7.55307 7.55054 7.62268C7.5399 7.6923 7.51287 7.75839 7.47168 7.81551C7.43049 7.87263 7.37631 7.91914 7.31362 7.95122C7.25093 7.98329 7.18151 8.00001 7.11108 7.99999ZM11.5555 7.99999C11.4623 7.99999 11.3714 7.97062 11.2958 7.91605C11.2201 7.86149 11.1636 7.78449 11.1342 7.69599C11.044 7.42977 10.6813 6.66666 10.2222 6.66666C9.75019 6.66666 9.38264 7.47866 9.31019 7.69599C9.27174 7.80634 9.19138 7.8971 9.0865 7.94864C8.98162 8.00017 8.86067 8.00832 8.74982 7.97133C8.63898 7.93435 8.54716 7.85519 8.49424 7.75101C8.44132 7.64682 8.43157 7.52599 8.46708 7.41466C8.52308 7.24755 9.04664 5.77777 10.2222 5.77777C11.3977 5.77777 11.9213 7.24755 11.9769 7.4151C11.9991 7.48188 12.0052 7.55299 11.9946 7.62257C11.9839 7.69215 11.9569 7.75822 11.9158 7.81533C11.8747 7.87244 11.8206 7.91896 11.7579 7.95107C11.6953 7.98317 11.6259 7.99994 11.5555 7.99999ZM7.99997 9.77777C6.38975 9.77777 5.32131 9.59022 3.99997 9.33333C3.6982 9.2751 3.11108 9.33333 3.11108 10.2222C3.11108 12 5.15331 14.2222 7.99997 14.2222C10.8462 14.2222 12.8889 12 12.8889 10.2222C12.8889 9.33333 12.3017 9.27466 12 9.33333C10.6786 9.59022 9.61019 9.77777 7.99997 9.77777Z" fill="#664500"/>
<path d="M4 10.2222C4 10.2222 5.33333 10.6667 8 10.6667C10.6667 10.6667 12 10.2222 12 10.2222C12 10.2222 11.4027 13.2222 8 13.2222C4.59733 13.2222 4 10.2222 4 10.2222Z" fill="white"/>
<path d="M8 12.264C6.40177 12.264 5.21244 12.0987 4.47244 11.9329L4.10577 11.1013C4.47155 11.24 5.83422 11.5 8.00044 11.5C10.2022 11.5 11.5724 11.2262 11.94 11.0831L11.6284 11.9018C10.9022 12.0707 9.66444 12.264 8 12.264Z" fill="#664500"/>
</svg>
