<svg width="17" height="16" viewBox="0 0 17 16" fill="none" xmlns="http://www.w3.org/2000/svg">
<path d="M17 8C17 12.4182 13.1944 16 8.5 16C3.80611 16 0 12.4182 0 8C0 3.58222 3.80611 0 8.5 0C13.1944 0 17 3.58222 17 8Z" fill="#FFCC4D"/>
<path d="M8.50003 14.6667C9.80403 14.6667 10.8611 13.4728 10.8611 12C10.8611 10.5273 9.80403 9.33334 8.50003 9.33334C7.19602 9.33334 6.13892 10.5273 6.13892 12C6.13892 13.4728 7.19602 14.6667 8.50003 14.6667Z" fill="#664500"/>
<path d="M2.83283 4.8889C2.74518 4.88881 2.65927 4.86577 2.58474 4.82234C2.51021 4.77892 2.44999 4.71682 2.41083 4.64302C2.37167 4.56921 2.35511 4.48659 2.363 4.40443C2.3709 4.32226 2.40293 4.24379 2.45553 4.17779C3.99592 2.24445 6.05197 2.22223 6.13886 2.22223C6.20088 2.22211 6.26231 2.23349 6.31965 2.25572C6.37699 2.27795 6.42911 2.31059 6.47305 2.35178C6.51699 2.39296 6.55188 2.44189 6.57572 2.49577C6.59957 2.54965 6.6119 2.60742 6.61203 2.66579C6.61215 2.72415 6.60006 2.78197 6.57644 2.83593C6.55283 2.8899 6.51815 2.93896 6.47439 2.98032C6.43062 3.02167 6.37864 3.0545 6.32139 3.07695C6.26415 3.09939 6.20276 3.111 6.14075 3.11112C6.06756 3.11201 4.45586 3.14934 3.21108 4.71112C3.1671 4.76643 3.11 4.8113 3.04433 4.84217C2.97866 4.87303 2.90624 4.88903 2.83283 4.8889ZM14.1671 4.8889C14.0937 4.88903 14.0213 4.87303 13.9556 4.84217C13.8899 4.8113 13.8328 4.76643 13.7889 4.71112C12.5422 3.14623 10.9267 3.11201 10.8583 3.11112C10.7334 3.10983 10.6142 3.06216 10.5265 2.97849C10.4389 2.89483 10.3899 2.78195 10.3903 2.66445C10.3905 2.54709 10.4402 2.43461 10.5285 2.3517C10.6168 2.26879 10.7364 2.22223 10.8611 2.22223C10.948 2.22223 13.0036 2.24445 14.5444 4.17779C14.597 4.24379 14.6291 4.32226 14.6369 4.40443C14.6448 4.48659 14.6283 4.56921 14.5891 4.64302C14.55 4.71682 14.4897 4.77892 14.4152 4.82234C14.3407 4.86577 14.2548 4.88881 14.1671 4.8889Z" fill="#664500"/>
<path d="M8.49998 10.2222C7.71751 10.2222 7.08331 11.0178 7.08331 12H9.91665C9.91665 11.0178 9.28245 10.2222 8.49998 10.2222Z" fill="#F5F8FA"/>
<path d="M5.66664 8C6.31864 8 6.8472 7.30355 6.8472 6.44444C6.8472 5.58533 6.31864 4.88889 5.66664 4.88889C5.01464 4.88889 4.48608 5.58533 4.48608 6.44444C4.48608 7.30355 5.01464 8 5.66664 8Z" fill="#664500"/>
<path d="M11.3333 8C11.9853 8 12.5139 7.30355 12.5139 6.44444C12.5139 5.58533 11.9853 4.88889 11.3333 4.88889C10.6813 4.88889 10.1528 5.58533 10.1528 6.44444C10.1528 7.30355 10.6813 8 11.3333 8Z" fill="#664500"/>
</svg>
