<svg width="16" height="16" viewBox="0 0 16 16" fill="none" xmlns="http://www.w3.org/2000/svg">
<path d="M14.6666 9.33332C14.6666 13.0151 11.6818 16 7.99998 16C4.3182 16 1.33331 13.0151 1.33331 9.33332C1.33331 5.65155 4.3182 2.66666 7.99998 2.66666C11.6818 2.66666 14.6666 5.65155 14.6666 9.33332Z" fill="#FFCC4D"/>
<path d="M11.4169 11.38C11.3855 11.3516 11.3451 11.335 11.3027 11.3332C11.2604 11.3313 11.2187 11.3442 11.1849 11.3698C11.1707 11.38 9.74935 12.4316 8.00046 12.4316C6.25602 12.4316 4.83024 11.3805 4.81602 11.3698C4.78226 11.3435 4.74034 11.33 4.6976 11.3315C4.65485 11.333 4.61401 11.3496 4.58222 11.3782C4.55043 11.4068 4.52972 11.4457 4.52371 11.488C4.5177 11.5304 4.52677 11.5735 4.54935 11.6098C4.59601 11.6889 5.72624 13.5289 8.00002 13.5289C10.2733 13.5289 11.404 11.6885 11.4511 11.6102C11.4729 11.5738 11.4814 11.531 11.4752 11.489C11.4689 11.447 11.4483 11.4085 11.4169 11.38ZM6.53602 8.78446C6.53602 9.49246 6.12624 10.0658 5.6209 10.0658C5.11557 10.0658 4.70579 9.49246 4.70579 8.78446C4.70579 8.07735 5.11513 7.50357 5.6209 7.50357C6.12668 7.50357 6.53602 8.0769 6.53602 8.78446ZM11.2942 8.78446C11.2942 9.49246 10.8845 10.0658 10.3787 10.0658C9.87335 10.0658 9.46357 9.49246 9.46357 8.78446C9.46357 8.07735 9.87335 7.50357 10.3787 7.50357C10.8845 7.50313 11.2942 8.0769 11.2942 8.78446ZM14.2222 2.72446C13.6933 3.3649 12.808 3.59157 11.9662 3.66713C11.8249 2.98357 11.2182 0.444458 10 0.444458C8.93202 0.444458 8.54713 0.929347 8.00002 0.929347C7.4529 0.929347 7.06802 0.444458 6.00002 0.444458C4.78179 0.444458 4.17513 2.98357 4.03379 3.66713C3.19202 3.59157 2.30668 3.36446 1.77779 2.72446C0.820904 1.56624 -0.44443 2.41957 0.196459 3.69068C1.2089 5.69824 3.65779 7.11113 8.00002 7.11113C12.3418 7.11113 14.7907 5.69824 15.8036 3.69068C16.4445 2.41957 15.1791 1.56624 14.2222 2.72446Z" fill="#664500"/>
<path d="M9.55558 1.33334C8.72492 1.33334 8.42536 1.76179 8.00003 1.76179C7.57469 1.76179 7.27514 1.33334 6.44447 1.33334C5.3498 1.33334 4.88892 4.33334 4.88892 4.33334C4.88892 4.33334 5.45869 5.33334 8.00003 5.33334C10.5418 5.33334 11.1111 4.33334 11.1111 4.33334C11.1111 4.33334 10.6502 1.33334 9.55558 1.33334Z" fill="#825D0E"/>
<path d="M4.88892 2.66666C4.88892 2.66666 5.81069 3.55555 8.00003 3.55555C10.1898 3.55555 11.1111 2.66666 11.1111 2.66666V3.55555C11.1111 3.55555 10.1236 4.44443 8.00003 4.44443C5.87647 4.44443 4.88892 3.55555 4.88892 3.55555V2.66666Z" fill="#664500"/>
</svg>
