<svg width="17" height="16" viewBox="0 0 17 16" fill="none" xmlns="http://www.w3.org/2000/svg">
<path d="M17 8C17 12.4182 13.1944 16 8.5 16C3.80611 16 0 12.4182 0 8C0 3.58222 3.80611 0 8.5 0C13.1944 0 17 3.58222 17 8Z" fill="#FFCC4D"/>
<path d="M2.83334 5.77776C2.77132 5.77788 2.70989 5.7665 2.65255 5.74427C2.59521 5.72204 2.54309 5.6894 2.49915 5.64822C2.41041 5.56503 2.36042 5.45208 2.36017 5.33421C2.35992 5.21633 2.40943 5.10319 2.49781 5.01968C2.58619 4.93616 2.70621 4.88911 2.83145 4.88887C2.90511 4.88798 4.51681 4.85065 5.76159 3.28887C5.83673 3.19458 5.9486 3.13223 6.07258 3.11556C6.19656 3.09889 6.3225 3.12926 6.4227 3.19999C6.52289 3.27071 6.58913 3.376 6.60684 3.49269C6.62455 3.60938 6.59229 3.72791 6.51714 3.82221C4.97628 5.75554 2.92022 5.77776 2.83334 5.77776ZM14.1667 5.77776C14.0798 5.77776 12.0242 5.75554 10.4833 3.82221C10.444 3.77571 10.415 3.72226 10.398 3.66503C10.3811 3.60779 10.3764 3.54794 10.3845 3.48899C10.3925 3.43005 10.413 3.37323 10.4448 3.32187C10.4765 3.27052 10.5189 3.22568 10.5694 3.19001C10.6199 3.15434 10.6775 3.12857 10.7388 3.11421C10.8 3.09985 10.8637 3.09721 10.9261 3.10642C10.9885 3.11564 11.0483 3.13654 11.1019 3.16787C11.1555 3.19921 11.202 3.24036 11.2384 3.28887C12.4856 4.85376 14.1006 4.88843 14.169 4.88887C14.4288 4.89154 14.6384 5.09154 14.637 5.33554C14.6369 5.45287 14.5873 5.56535 14.4991 5.64827C14.4109 5.73119 14.2913 5.77776 14.1667 5.77776ZM2.83381 9.77776C2.73478 9.77773 2.63826 9.7484 2.55792 9.69391C2.47757 9.63943 2.41745 9.56255 2.38607 9.47414C2.3547 9.38574 2.35364 9.29029 2.38306 9.20129C2.41248 9.1123 2.47088 9.03425 2.55 8.97821C2.61753 8.93065 3.94353 8.00798 5.78756 7.67465C4.61881 7.1231 3.32161 7.1111 3.30509 7.1111C3.1835 7.10592 3.06872 7.0568 2.98465 6.97398C2.90058 6.89115 2.85369 6.78099 2.85375 6.66644C2.85381 6.55189 2.90082 6.44178 2.98498 6.35903C3.06914 6.27628 3.18397 6.22727 3.30556 6.22221C3.40992 6.22221 5.88011 6.2391 7.4172 7.68576C7.48322 7.74792 7.52818 7.8271 7.54639 7.9133C7.5646 7.99951 7.55525 8.08885 7.51952 8.17005C7.48378 8.25125 7.42327 8.32066 7.34564 8.3695C7.268 8.41833 7.17672 8.44441 7.08334 8.44443C4.90497 8.44443 3.13414 9.67643 3.11667 9.68887C3.03512 9.7466 2.93584 9.77779 2.83381 9.77776ZM14.1662 9.77732C14.0644 9.77745 13.9654 9.74657 13.8838 9.68932C13.8659 9.67643 12.0842 8.44443 9.91667 8.44443C9.82319 8.44462 9.73175 8.41867 9.65396 8.36987C9.57618 8.32107 9.51555 8.25162 9.47978 8.17033C9.44401 8.08904 9.4347 7.99958 9.45305 7.91331C9.47139 7.82703 9.51656 7.74784 9.58281 7.68576C11.1204 6.2391 13.5901 6.22221 13.6944 6.22221C13.7565 6.22215 13.8179 6.23359 13.8752 6.25587C13.9325 6.27815 13.9846 6.31084 14.0285 6.35207C14.0724 6.3933 14.1072 6.44226 14.131 6.49616C14.1548 6.55006 14.1671 6.60784 14.1671 6.66621C14.1672 6.72457 14.1551 6.78238 14.1314 6.83632C14.1077 6.89027 14.073 6.9393 14.0292 6.98061C13.9854 7.02192 13.9333 7.05471 13.8761 7.07709C13.8188 7.09948 13.7574 7.11104 13.6954 7.1111C13.6784 7.1111 12.3812 7.1231 11.2124 7.67465C13.0565 8.00798 14.3825 8.93021 14.4495 8.97821C14.5284 9.03429 14.5866 9.11226 14.6159 9.20113C14.6453 9.29 14.6442 9.38529 14.6129 9.47356C14.5816 9.56183 14.5216 9.63863 14.4415 9.69312C14.3614 9.74762 14.2651 9.77707 14.1662 9.77732ZM8.5 13.3333C8.42918 13.3333 8.35927 13.3184 8.29543 13.2895C8.23159 13.2607 8.17546 13.2187 8.1312 13.1667L6.62292 11.3924L5.57223 12.7111C5.53172 12.7621 5.48001 12.8044 5.42061 12.8349C5.3612 12.8655 5.2955 12.8837 5.22797 12.8882C5.16044 12.8927 5.09267 12.8834 5.02928 12.8611C4.96588 12.8387 4.90835 12.8038 4.86059 12.7587L4.38836 12.3142C4.34452 12.2729 4.30974 12.224 4.28601 12.17C4.26229 12.1161 4.25007 12.0583 4.25007 12C4.25007 11.9416 4.26229 11.8838 4.28601 11.8299C4.30974 11.776 4.34452 11.727 4.38836 11.6858C4.47691 11.6024 4.597 11.5556 4.72222 11.5556C4.78423 11.5556 4.84563 11.5671 4.90291 11.5894C4.96019 11.6118 5.01224 11.6445 5.05609 11.6858L5.14345 11.768L6.23334 10.4C6.27634 10.3455 6.3321 10.301 6.39628 10.27C6.46046 10.2391 6.53136 10.2224 6.60348 10.2213C6.67561 10.2202 6.74702 10.2348 6.81222 10.2638C6.87741 10.2929 6.93463 10.3357 6.97945 10.3889L8.5 12.1773L10.0201 10.3889C10.1112 10.2818 10.2486 10.2222 10.3964 10.2222C10.5428 10.2244 10.6793 10.2898 10.7667 10.4L11.857 11.7675L11.9444 11.6853C11.9882 11.6441 12.0403 11.6113 12.0976 11.589C12.1549 11.5667 12.2162 11.5552 12.2783 11.5552C12.3403 11.5552 12.4017 11.5667 12.4589 11.589C12.5162 11.6113 12.5683 11.6441 12.6121 11.6853C12.656 11.7266 12.6907 11.7756 12.7145 11.8295C12.7382 11.8834 12.7504 11.9412 12.7504 11.9995C12.7504 12.0579 12.7382 12.1157 12.7145 12.1696C12.6907 12.2235 12.656 12.2725 12.6121 12.3138L12.1399 12.7582C12.0925 12.8038 12.035 12.839 11.9715 12.8613C11.908 12.8836 11.84 12.8924 11.7725 12.8871C11.705 12.8826 11.6394 12.8645 11.58 12.8341C11.5206 12.8036 11.4689 12.7615 11.4283 12.7107L10.3771 11.392L8.86928 13.1662C8.82497 13.2183 8.76878 13.2604 8.70486 13.2893C8.64094 13.3183 8.57093 13.3333 8.5 13.3333Z" fill="#664500"/>
</svg>
