<svg width="17" height="16" viewBox="0 0 17 16" fill="none" xmlns="http://www.w3.org/2000/svg">
<path d="M17 8C17 12.4182 13.1944 16 8.5 16C3.80611 16 0 12.4182 0 8C0 3.58222 3.80611 0 8.5 0C13.1944 0 17 3.58222 17 8Z" fill="#FFCC4D"/>
<path d="M5.43056 8.88888C6.08256 8.88888 6.61111 8.19244 6.61111 7.33333C6.61111 6.47422 6.08256 5.77777 5.43056 5.77777C4.77855 5.77777 4.25 6.47422 4.25 7.33333C4.25 8.19244 4.77855 8.88888 5.43056 8.88888Z" fill="#664500"/>
<path d="M11.5695 8.88888C12.2215 8.88888 12.75 8.19244 12.75 7.33333C12.75 6.47422 12.2215 5.77777 11.5695 5.77777C10.9175 5.77777 10.3889 6.47422 10.3889 7.33333C10.3889 8.19244 10.9175 8.88888 11.5695 8.88888Z" fill="#664500"/>
<path d="M2.83283 5.33332C2.74518 5.33324 2.65927 5.3102 2.58474 5.26677C2.51021 5.22335 2.44999 5.16125 2.41083 5.08744C2.37167 5.01363 2.35511 4.93102 2.363 4.84886C2.3709 4.76669 2.40293 4.68821 2.45553 4.62221C3.99592 2.68888 6.05197 2.66666 6.13886 2.66666C6.20088 2.66654 6.26231 2.67792 6.31965 2.70015C6.37699 2.72238 6.42911 2.75502 6.47305 2.7962C6.51699 2.83739 6.55188 2.88632 6.57572 2.9402C6.59957 2.99408 6.6119 3.05185 6.61203 3.11021C6.61215 3.16858 6.60006 3.22639 6.57644 3.28036C6.55283 3.33433 6.51815 3.38339 6.47439 3.42474C6.43062 3.4661 6.37864 3.49893 6.32139 3.52137C6.26415 3.54382 6.20276 3.55543 6.14075 3.55555C6.06756 3.55644 4.45586 3.59377 3.21108 5.15555C3.1671 5.21086 3.11 5.25573 3.04433 5.2866C2.97866 5.31746 2.90624 5.33346 2.83283 5.33332ZM14.1671 5.33332C14.0937 5.33346 14.0213 5.31746 13.9556 5.2866C13.8899 5.25573 13.8328 5.21086 13.7889 5.15555C12.5422 3.59066 10.9267 3.55644 10.8583 3.55555C10.7334 3.55426 10.6142 3.50659 10.5265 3.42292C10.4389 3.33926 10.3899 3.22638 10.3903 3.10888C10.3905 2.99151 10.4402 2.87903 10.5285 2.79613C10.6168 2.71322 10.7364 2.66666 10.8611 2.66666C10.948 2.66666 13.0036 2.68888 14.5444 4.62221C14.597 4.68821 14.6291 4.76669 14.6369 4.84886C14.6448 4.93102 14.6283 5.01363 14.5891 5.08744C14.55 5.16125 14.4897 5.22335 14.4152 5.26677C14.3407 5.3102 14.2548 5.33324 14.1671 5.33332ZM11.0901 12.3907C11.0849 12.3711 10.5494 10.4444 8.49997 10.4444C6.45053 10.4444 5.91503 12.3711 5.90983 12.3907C5.89809 12.4367 5.90241 12.4851 5.92214 12.5286C5.94187 12.5721 5.97597 12.6085 6.01939 12.6324C6.06329 12.6565 6.11416 12.6669 6.16471 12.6621C6.21526 12.6573 6.26291 12.6376 6.30083 12.6058C6.30508 12.6022 6.7792 12.2222 8.49997 12.2222C10.1953 12.2222 10.6802 12.5911 10.6986 12.6058C10.7357 12.6388 10.7832 12.6597 10.8339 12.6652C10.8847 12.6707 10.936 12.6606 10.9801 12.6364C11.0242 12.6121 11.0587 12.5751 11.0786 12.5308C11.0984 12.4865 11.1025 12.4373 11.0901 12.3907Z" fill="#664500"/>
</svg>
