<svg width="16" height="16" viewBox="0 0 16 16" fill="none" xmlns="http://www.w3.org/2000/svg">
<path d="M16 8C16 12.4182 12.4182 16 8 16C3.58222 16 0 12.4182 0 8C0 3.58222 3.58222 0 8 0C12.4182 0 16 3.58222 16 8Z" fill="#FFCC4D"/>
<path d="M11.3266 13.2796C11.3066 13.2 10.8075 11.3333 7.99997 11.3333C5.19197 11.3333 4.69331 13.2 4.67331 13.2796C4.66163 13.3265 4.6656 13.3759 4.68461 13.4204C4.70363 13.4648 4.73664 13.5018 4.77864 13.5258C4.82086 13.5495 4.8696 13.559 4.91764 13.5528C4.96567 13.5466 5.01043 13.5252 5.04531 13.4916C5.05375 13.4831 5.91375 12.6667 7.99997 12.6667C10.0862 12.6667 10.9466 13.4831 10.9546 13.4911C10.989 13.5251 11.0336 13.547 11.0815 13.5535C11.1295 13.56 11.1782 13.5507 11.2204 13.5271C11.2628 13.5032 11.2961 13.466 11.3153 13.4213C11.3345 13.3765 11.3385 13.3268 11.3266 13.2796ZM6.98086 7.68578C5.53419 6.23912 3.20931 6.22223 3.11108 6.22223C2.99665 6.22729 2.88857 6.2763 2.80936 6.35905C2.73015 6.4418 2.68591 6.55191 2.68585 6.66646C2.68579 6.78101 2.72992 6.89117 2.80905 6.974C2.88818 7.05683 2.99621 7.10594 3.11064 7.11112C3.12353 7.11112 3.96619 7.1209 4.88086 7.43867C4.61731 7.72312 4.44442 8.1649 4.44442 8.66667C4.44442 9.52623 4.94175 10.2222 5.55553 10.2222C6.16931 10.2222 6.66664 9.52623 6.66664 8.66667C6.66664 8.58934 6.6582 8.51556 6.65019 8.44134C6.65597 8.44134 6.66131 8.44445 6.66664 8.44445C6.75462 8.44465 6.84068 8.4187 6.91389 8.36989C6.9871 8.32109 7.04416 8.25164 7.07783 8.17035C7.1115 8.08906 7.12025 7.99961 7.10299 7.91333C7.08572 7.82706 7.04322 7.74786 6.98086 7.68578ZM12.8889 6.22223C12.7906 6.22223 10.4662 6.23912 9.01908 7.68578C8.95673 7.74786 8.91422 7.82706 8.89696 7.91333C8.87969 7.99961 8.88845 8.08906 8.92212 8.17035C8.95579 8.25164 9.01285 8.32109 9.08605 8.36989C9.15926 8.4187 9.24532 8.44465 9.33331 8.44445C9.33908 8.44445 9.34397 8.44134 9.34931 8.44134C9.3422 8.51556 9.33331 8.58934 9.33331 8.66667C9.33331 9.52623 9.83064 10.2222 10.4444 10.2222C11.0582 10.2222 11.5555 9.52623 11.5555 8.66667C11.5555 8.1649 11.3826 7.72312 11.1191 7.43867C11.6902 7.24377 12.2867 7.13341 12.8898 7.11112C12.9481 7.11106 13.0059 7.09951 13.0598 7.07712C13.1137 7.05473 13.1627 7.02194 13.2039 6.98063C13.2451 6.93932 13.2778 6.89029 13.3001 6.83634C13.3224 6.7824 13.3338 6.72459 13.3338 6.66623C13.3337 6.60786 13.3221 6.55008 13.2998 6.49618C13.2774 6.44228 13.2446 6.39332 13.2033 6.35209C13.162 6.31086 13.1129 6.27817 13.059 6.25589C13.005 6.23361 12.9472 6.22217 12.8889 6.22223Z" fill="#664500"/>
</svg>
